PathFileType	4	(X/Y/Z)	/Users/niels/Desktop/University/Third Semester/Perception and Action/Exam/Gymnastics Motion Tracking/Code for Gym Tracking/Analyzed Data/Webcam_Backflip/id7_1_baseline_Sports2D/id7_1_baseline_Sports2D_px_person00.trc
DataRate	CameraRate	NumFrames	NumMarkers	Units	OrigDataRate	OrigDataStartFrame	OrigNumFrames
29.708737864077673	29.708737864077673	7	22	m	29.708737864077673	51	103
Frame#	Time	Hip			RHip			RKnee			RAnkle			RBigToe			RSmallToe			RHeel			LHip			LKnee			LAnkle			LBigToe			LSmallToe			LHeel			Neck			Head			Nose			RShoulder			RElbow			RWrist			LShoulder			LElbow			LWrist		
		X1	Y1	Z1	X2	Y2	Z2	X3	Y3	Z3	X4	Y4	Z4	X5	Y5	Z5	X6	Y6	Z6	X7	Y7	Z7	X8	Y8	Z8	X9	Y9	Z9	X10	Y10	Z10	X11	Y11	Z11	X12	Y12	Z12	X13	Y13	Z13	X14	Y14	Z14	X15	Y15	Z15	X16	Y16	Z16	X17	Y17	Z17	X18	Y18	Z18	X19	Y19	Z19	X20	Y20	Z20	X21	Y21	Z21	X22	Y22	Z22
51	1.7166666666666666	0.8950801881725935	-0.4759705450024244	0.0	0.8952852632647793	-0.4731882439674833	0.0	0.913500390665756	-0.7109801950431168	0.0	0.8666334309343177	-0.9450955150982459	0.0	0.971194952923995	-0.9739521484643482	0.0	0.9516339788875278	-0.9863979436938483	0.0	0.841900575785084	-0.9761123766742641	0.0	0.907273155606199	-0.4772809819681966	0.0	0.9173760945661539	-0.7009185420986992	0.0	0.8795867361988972	-0.9145915520253414	0.0	0.981060333927692	-0.9500061502393758	0.0	0.9711720257335698	-0.9420795656468947	0.0	0.8433680716985728	-0.9387804388107182	0.0	0.874444130973707	-0.13310956379454167	0.0	0.9083900718614435	0.012776214980355766	0.0	0.9279108505401142	-0.06892293717138649	0.0	0.8522881900524586	-0.17762777783575717	0.0	1.007646544583151	-0.24168270187970306	0.0	1.0784889173251346	-0.12156507126370308	0.0	0.8585850047440483	-0.17549490902042794	0.0	0.9788933021346355	-0.23578237601471289	0.0	1.0674911978430213	-0.1372179685282142	0.0
52	1.750326797385621	0.8942972962600829	-0.475347521639435	0.0	0.8939872512052911	-0.4725017714673032	0.0	0.911837342733686	-0.7108279934267391	0.0	0.8664560552110309	-0.9450899428675225	0.0	0.9710349932204733	-0.9740857857925783	0.0	0.9513187416218418	-0.9865754425932417	0.0	0.8417865092036819	-0.9758479962923401	0.0	0.9070786708043014	-0.47680901463419767	0.0	0.9168595139829976	-0.7007987849346838	0.0	0.878922677417137	-0.9143446104190495	0.0	0.980695690327659	-0.9500632576953641	0.0	0.9710529936534505	-0.9416699250264172	0.0	0.8425909400603243	-0.9387750737989706	0.0	0.875059789663556	-0.13293044500283102	0.0	0.9088820603750395	0.012282836212204136	0.0	0.928421408700913	-0.06838432101015267	0.0	0.8523102013923988	-0.17700508361358047	0.0	1.008765715470143	-0.2390880328482633	0.0	1.0777234569796936	-0.11843036610596297	0.0	0.8606987554056592	-0.1748972003279154	0.0	0.9798374780431366	-0.2342529958182978	0.0	1.0684131390298652	-0.13518337041152206	0.0
53	1.783986928104575	0.8935950859286415	-0.4743635190401416	0.0	0.8925729553338025	-0.47140699606684744	0.0	0.9104145072207309	-0.7104174912947553	0.0	0.8664108379990494	-0.9448996083802762	0.0	0.9707925276959315	-0.9742408481972534	0.0	0.9509201740080182	-0.9867167940110239	0.0	0.8418704369158693	-0.9754210570552754	0.0	0.9055293929320782	-0.475663102674743	0.0	0.9159531425262208	-0.7001008908664555	0.0	0.8781496392340504	-0.9134092751318171	0.0	0.9793284909172598	-0.9491151976709536	0.0	0.9698681751179413	-0.940398452557791	0.0	0.8408005437122295	-0.938083841503424	0.0	0.8754559024081621	-0.1326281790264927	0.0	0.9096842052345777	0.011881990395527566	0.0	0.928997716832811	-0.06832900493418004	0.0	0.8523086212611435	-0.17689946422787886	0.0	1.0097494734582972	-0.23799882768641042	0.0	1.0797897024568297	-0.11744847689293998	0.0	0.8617118870573961	-0.1743562909538303	0.0	0.9806770277608342	-0.23402878342748754	0.0	1.069167416757853	-0.13484849191755238	0.0
54	1.8176470588235294	0.8927757311528254	-0.4731461258227485	0.0	0.8912291777755497	-0.47007481747219665	0.0	0.9090132109578429	-0.7099015418971776	0.0	0.8664330721301365	-0.9446051054775365	0.0	0.9704536708446883	-0.9744309589122867	0.0	0.950398865629154	-0.9868511226210995	0.0	0.8420726437624019	-0.974980253487251	0.0	0.9023482343242046	-0.47401413925755437	0.0	0.9142038267754271	-0.6990209764598092	0.0	0.8771488475622543	-0.9118215243732556	0.0	0.9769274030174911	-0.9471743250144364	0.0	0.9675658448068394	-0.9382535338612273	0.0	0.838164583663262	-0.936742445574577	0.0	0.8755444129363529	-0.13213992815401962	0.0	0.9107659068902193	0.011917406188666298	0.0	0.9296868627609228	-0.06861779427969518	0.0	0.8523844001900446	-0.17714310083397777	0.0	1.0103917404895166	-0.23810275581167759	0.0	1.0845042272828007	-0.11835402056374243	0.0	0.8609554664610378	-0.17385777054630758	0.0	0.9809993236433188	-0.23480304475913416	0.0	1.0671016516881588	-0.13599829969030414	0.0
55	1.8513071895424835	0.8916606259725173	-0.47183171763281173	0.0	0.8901342753748424	-0.46874166274375845	0.0	0.9074934617226028	-0.7094251716141837	0.0	0.8664385960232077	-0.9442497325284925	0.0	0.9700086220035766	-0.9747276224980701	0.0	0.949723513803451	-0.9870582543572166	0.0	0.8422658400299773	-0.9746651551909291	0.0	0.8975779922477809	-0.472137627034833	0.0	0.9113215154867101	-0.6978125087370416	0.0	0.8758177351138808	-0.9097364096935016	0.0	0.9735206655164074	-0.9445091176370364	0.0	0.9641053021395063	-0.9355561804815193	0.0	0.8350774919303925	-0.9350698565430327	0.0	0.8752703671177413	-0.13152324589669986	0.0	0.9120070180701184	0.012555886355496761	0.0	0.9304213078039208	-0.0691400420955047	0.0	0.8525325394253104	-0.17744132117645145	0.0	1.0102367549251139	-0.2390304248084208	0.0	1.09157044798663	-0.1211424866398596	0.0	0.8584037986745294	-0.17340774903513922	0.0	0.9804686023925405	-0.2363542171856628	0.0	1.05928808876335	-0.13865504598062195	0.0
56	1.8849673202614379	0.890182875342593	-0.47053289571767265	0.0	0.8893121268056219	-0.467607721706009	0.0	0.9057614780299126	-0.7090247959572401	0.0	0.8663231850150171	-0.9438474853541844	0.0	0.9695272173715227	-0.9751152097942895	0.0	0.9489872566590793	-0.9873286136550575	0.0	0.8423364618009583	-0.9745666466863606	0.0	0.8920120115737245	-0.47028070088766644	0.0	0.9073827421283509	-0.6966428798157286	0.0	0.874138012986181	-0.9074195763168142	0.0	0.9694114335322834	-0.9415120988209865	0.0	0.9597456942124701	-0.9328352569084385	0.0	0.832103645674793	-0.9334572772997892	0.0	0.8746759255197555	-0.13091750546943873	0.0	0.913161887884319	0.013782651990665558	0.0	0.9310414695467635	-0.06981068538504788	0.0	0.852547880360148	-0.17752107498956118	0.0	1.008780253872111	-0.24043266215081574	0.0	1.1005951417342266	-0.12595918593700825	0.0	0.8552155392989153	-0.1730411856700166	0.0	0.9791650483960943	-0.2386017827361493	0.0	1.0440277110345872	-0.14327071585134407	0.0
57	1.918627450980392	0.8883748145693587	-0.46936528976788683	0.0	0.8885273978061196	-0.46680623471248117	0.0	0.9037683759657053	-0.7086708109060138	0.0	0.8659866516233653	-0.9434006341690604	0.0	0.9691417890310049	-0.9754629579469402	0.0	0.948411628313076	-0.9875444248629238	0.0	0.8422429146917731	-0.9746610353329566	0.0	0.8869546860026114	-0.46866662264805115	0.0	0.9029428468607203	-0.6955408014303059	0.0	0.8722318548834935	-0.9052364564554322	0.0	0.9652231794667592	-0.9385719668962658	0.0	0.9551639394520645	-0.9305611494848621	0.0	0.829792823352773	-0.9321520373617883	0.0	0.8738745854079707	-0.1304754549124575	0.0	0.913983439448499	0.015411872192689371	0.0	0.931410634017786	-0.07054247728193917	0.0	0.8521493330794105	-0.17729719843661107	0.0	1.0058415086507977	-0.24201220500179424	0.0	1.1110933087294825	-0.13303467535204352	0.0	0.8531985426941479	-0.17282203389239845	0.0	0.9776852502194268	-0.24153322789411188	0.0	1.023492725076735	-0.15073205997160793	0.0
